<svg width="18" height="18" viewBox="0 0 18 18" fill="none" xmlns="http://www.w3.org/2000/svg">
<g clip-path="url(#clip0)">
<path d="M17.5101 13.2102L14.9981 10.6982C14.101 9.80111 12.5759 10.16 12.2171 11.3262C11.9479 12.1337 11.0508 12.5822 10.2434 12.4028C8.44912 11.9542 6.02688 9.62168 5.57831 7.73772C5.30918 6.93027 5.84745 6.03314 6.65487 5.76404C7.82113 5.40519 8.17998 3.88007 7.28286 2.98295L4.7709 0.470991C4.0532 -0.156997 2.97665 -0.156997 2.34866 0.470991L0.644119 2.17553C-1.06042 3.96978 0.823545 8.72456 5.04004 12.941C9.25653 17.1575 14.0113 19.1313 15.8056 17.337L17.5101 15.6324C18.1381 14.9147 18.1381 13.8382 17.5101 13.2102Z" fill="#2196F3"/>
</g>
<defs>
<clipPath id="clip0">
<rect width="18" height="18" fill="white"/>
</clipPath>
</defs>
</svg>
