<svg width="84" height="32" viewBox="0 0 84 32" fill="none" xmlns="http://www.w3.org/2000/svg">
<path d="M0 31.0629V0.934494C3.20973 1.0622 11.1178 0.59713 14.1045 1.39575C23.6136 2.7433 23.301 17.6178 14.196 19.4533C11.8344 20.2024 7.90615 19.9756 5.35209 20.0061V31.061L0 31.0629ZM5.33684 15.7233C9.82551 16.0073 16.3765 15.7519 15.8847 10.2397C16.0944 4.40916 9.57391 5.28402 5.33684 5.21922V15.7233ZM24.9688 31.0629V0.934494C29.9244 1.26042 38.8351 -0.197678 43.0264 2.91484C48.4071 6.76881 46.7526 16.8097 40.2169 18.487L47.4026 31.0667H41.4158L34.9201 19.2742H30.3133V31.0629H24.9688ZM30.3056 15.0314C34.4989 15.1 41.149 15.6508 40.9469 9.8718C41.1375 4.15375 34.2911 5.35645 30.3056 5.21922V15.0314ZM62.0827 31.6137C44.3911 32.1093 44.2844 -0.197678 62.0827 0.379844C79.944 -0.1729 79.8353 32.0902 62.0903 31.6156L62.0827 31.6137ZM62.0827 26.9611C72.6973 26.6905 72.6401 5.00193 62.0827 5.04196C51.512 4.95809 51.4834 26.6962 62.0903 26.963L62.0827 26.9611Z" fill="#3474BB"/>
<path d="M62.0903 31.6156C62.0903 31.6156 69.3656 32.4218 84 22.7488C84 22.7488 71.9273 27.7464 68.6222 26.963" fill="#3474BB"/>
<path d="M84 22.6572H78.4688L81.9148 23.7513L81.2344 27.1897L84 22.6572Z" fill="#3474BB"/>
</svg>
